<svg width="21" height="18" viewBox="0 0 21 18" fill="none" xmlns="http://www.w3.org/2000/svg">
<path d="M11.9151 1.94795L11.9152 1.94787C12.3815 1.4894 12.9356 1.12526 13.5461 0.876663C14.1566 0.628062 14.8113 0.5 15.4727 0.5C16.134 0.5 16.7887 0.628062 17.3992 0.876663C18.0097 1.12526 18.5639 1.4894 19.0302 1.94787L19.0303 1.94803C19.4968 2.40627 19.8664 2.94986 20.1184 3.54754C20.3704 4.14519 20.5 4.78547 20.5 5.43187C20.5 6.07827 20.3704 6.71854 20.1184 7.3162C19.8664 7.91387 19.4968 8.45747 19.0303 8.9157L19.0302 8.91579L17.9653 9.96231L10.4997 17.299L3.03413 9.96231L1.96922 8.91579C1.02745 7.99028 0.5 6.7369 0.5 5.43187C0.5 4.12683 1.02745 2.87345 1.96922 1.94795C2.91128 1.02216 4.19082 0.500528 5.52679 0.500528C6.86276 0.500528 8.14229 1.02216 9.08436 1.94795L10.1493 2.99447C10.3438 3.18565 10.6557 3.18565 10.8502 2.99447L11.9151 1.94795Z" fill="#EBEBEB" stroke="#C4C4C4" stroke-linecap="round" stroke-linejoin="round"/>
</svg>
